<svg xmlns="http://www.w3.org/2000/svg" xmlns:xlink="http://www.w3.org/1999/xlink" version="1.1" x="0px" y="0px" viewBox="0 0 164 164" enable-background="new 0 0 164 164" xml:space="preserve"><path fill-rule="evenodd" clip-rule="evenodd" fill="#000000" d="M126.667,26.606v-5.745c-0.258,0.046-0.521,0.063-0.777,0.121  l-0.001-4.329c5.021-0.92,10.164-0.92,15.183,0v4.329c-0.261-0.058-0.525-0.075-0.782-0.121v5.745h-0.731v76.929h24.123v44.821  c-72.392,0-86.256,0-163.68,0v-39.693l5.569,0.012L5.553,93.156c0-2.247,1.171-3.34,3.591-3.34l19.419-0.003l1.962-50.654h13.75  l2.858,50.965l8.823-0.063l1.502-30.035c2.917,0,5.834,0,8.751,0l2.437,29.946l3.866-0.027l1.508-29.919c2.907,0,5.813,0,8.721,0  l2.428,29.83l7.948-0.057c2.107,0,3.591,1.155,3.591,3.403v4.027c3.033,0.639,5.741,3.035,6.556,6.304h24.016V26.606H126.667z"></path></svg>