<svg xmlns="http://www.w3.org/2000/svg" xmlns:xlink="http://www.w3.org/1999/xlink" version="1.1" x="0px" y="0px" viewBox="0 0 100 100" enable-background="new 0 0 100 100" xml:space="preserve"><path d="M6.626,54.612v1.342c0,0,1.74,0,2,0c0.257,0,0.577,0.062,0.691-0.261c0.11-0.323,0.421-1.166,0.645-1.747  c10.733,2.967,34.141,2.851,34.141,2.851l15.313,0.1c1.366-0.029,20.085-0.169,26.669-0.268l1.028-0.009  c0.064,0,0.126-0.001,0.188-0.001c5.285-0.098,8.304-1.254,9.04-2.304c0.259-0.43,0.44-1.248,0.094-1.976c-0.001,0-0.001,0-0.001,0  l-0.042-0.098c-0.44-1.158-3.756-2.206-9.041-2.304c-0.061,0-0.124,0-0.187-0.001v0.02c0-0.21-0.173-0.386-0.386-0.386h-0.26  c-0.21,0-0.384,0.143-0.384,0.356c-6.584-0.099-25.304-0.239-26.669-0.268c-0.195-1.032-0.378-5.018-0.485-5.814  c-0.062-0.442-0.355-0.701-0.869-0.836v-0.011l-0.128-0.486l-0.688-0.418h-1.248v-2.319h-0.387v1.546h-0.514v0.773h-0.259v-5.672  h-0.26v5.672h-0.257v0.259h-1.419v-5.155h-0.387v5.155h-1.159v-4.641h0.259v-0.514h-1.031v0.514h0.259v4.513l-0.491,0.225  c-2.963-0.037-6.128,0.36-7.166,0.458c-0.043,0.235,0.076,0.735,0.076,0.735h1.375l-0.264,2.836h0.819l-0.056,0.515h-0.756  l-0.063,0.773h0.709l-0.114,0.517h-0.662l-0.148,1.475c0,0-23.408-0.116-34.14,2.851c-0.225-0.581-0.535-1.423-0.646-1.747  c-0.114-0.322-0.434-0.261-0.692-0.261c-0.258,0-1.999,0-1.999,0v1.401c0.27,0.025,0.484,0.599,0.484,1.306  c0,0.724-0.226,1.311-0.503,1.311C6.646,54.621,6.637,54.614,6.626,54.612z M52.566,42.999h-1.031v-0.387h1.031V42.999z   M54.372,42.999h-1.287v-0.387h1.287V42.999z M55.92,42.999h-1.291v-0.387h1.291V42.999z M57.86,43.367  c0,0.071-0.056,0.115-0.127,0.115l-12.655,0.143c-0.026,0-0.05-0.014-0.051-0.04c0-0.023,0.023-0.038,0.049-0.038l12.65-0.291h0.002  C57.8,43.257,57.86,43.296,57.86,43.367z M59.027,49.621c0,0.101-0.071,0.173-0.16,0.173L44.432,49.68  c-0.035,0-0.063-0.022-0.063-0.064c0-0.039,0.028-0.071,0.063-0.072l14.436-0.101h0.005C58.958,49.443,59.028,49.517,59.027,49.621z   M67.523,50.734h-0.904v-0.259h0.904V50.734z M68.811,50.734h-0.901v-0.259h0.901V50.734z"></path></svg>