<svg fill="white" xmlns="http://www.w3.org/2000/svg" xmlns:xlink="http://www.w3.org/1999/xlink" version="1.1" x="0px" y="0px" viewBox="0 0 100 100" enable-background="new 0 0 100 100" xml:space="preserve"><g><path d="M39.171,34.579c0-0.027,0.007-0.055,0.008-0.082c-0.001-0.017-0.006-0.032-0.006-0.049   C39.171,34.426,39.171,34.602,39.171,34.579z"></path><path d="M82.902,58.223c-0.686,0-8.623,4.928-7.94,5.476c0.407,0.324,2.493,0.503,4.127,0.598   c-2.31,5.237-6.088,10.43-11.619,13.775c-3.887,2.349-8.166,2.914-12.627,3.269l-1.392-44.182h4.096   c1.622,0,2.94-0.875,2.975-2.489c0.002-0.023,0.002-0.278,0.002-0.301c0-1.645-1.332-3.21-2.977-3.21h-4.285l-0.09-2.396   L53.114,27.2c3.944-1.326,6.794-4.944,6.794-9.33c0-5.49-4.468-9.903-9.958-9.903c-5.49,0-9.958,4.495-9.958,9.986   c0,4.4,2.868,8.153,6.833,9.467l-0.057,1.336l-0.09,2.403h-4.529c-1.617,0-2.926,1.717-2.969,3.338   c0.061,1.586,1.364,2.662,2.969,2.662h4.341l-1.39,44.112c-4.718-0.491-9.434-1.568-13.216-4.163   c-4.724-3.242-8.8-7.689-11.134-12.908c1.655-0.09,3.87-0.219,4.291-0.553c0.684-0.548-7.256-5.45-7.94-5.45   c-0.684,0-3.148,9.32-2.601,9.458c0.31,0.078,1.661-0.969,2.782-1.903c2.677,6.207,6.459,11.91,12.052,15.747   c4.229,2.903,8.964,4.857,13.947,5.779c2.809,0.519,5.238,2.272,6.667,4.746l0.004,0.009c0.066-0.115,0.133-0.228,0.205-0.339   c0.69-1.094,1.579-2.035,2.614-2.77c1.138-0.813,2.449-1.38,3.856-1.638c4.995-0.92,9.742-2.872,13.982-5.784   c5.661-3.885,9.488-9.814,11.613-16.165c1.176,1,2.926,2.419,3.281,2.33C86.049,67.53,83.586,58.223,82.902,58.223z M49.95,21.984   c-2.207,0-4.004-1.797-4.004-4.004c0-2.207,1.797-4.004,4.004-4.004c2.207,0,4.004,1.797,4.004,4.004   C53.954,20.188,52.158,21.984,49.95,21.984z"></path></g></svg>