<svg xmlns="http://www.w3.org/2000/svg" xmlns:xlink="http://www.w3.org/1999/xlink" viewBox="0 0 100 100" version="1.1" x="0px" y="0px"><title>Spitfire top view</title><desc>Created with Sketch.</desc><g stroke="none" stroke-width="1" fill="none" fill-rule="evenodd"><g fill="#000000"><path d="M47.4272082,42.0440805 C47.4272082,43.6866641 47.4272082,45.6323901 47.4272082,47.3767316 C48.4901853,47.8751295 51.7905964,47.8603889 52.8371805,47.36391 C52.8371805,45.6205073 52.8371805,43.6867096 52.8371805,42.0532662 C51.7890733,41.5558375 48.4808254,41.5422408 47.4272082,42.0440805 Z M47.4272082,41.1940072 C48.4808254,40.8480354 51.7890733,40.8528296 52.8371805,41.1977488 C52.8371805,39.4915483 52.8371805,38.2833802 52.8371805,38.2833802 C52.8371805,38.2833802 53.188055,36.7747256 50.1321944,36.7747256 C47.0763338,36.7747256 47.4272082,38.2833802 47.4272082,38.2833802 C47.4272082,38.2833802 47.4272082,39.4910749 47.4272082,41.1940072 Z M47.4272082,48.2257361 C47.4272082,48.5439983 47.4272082,48.8518282 47.4272082,49.1456935 C47.4272082,50.044735 48.2139296,51.5595409 50.1321944,51.5595409 C52.0504591,51.5595409 52.8371805,50.0232101 52.8371805,49.1456935 C52.8371805,48.849319 52.8371805,48.5394251 52.8371805,48.2194869 C51.7905964,48.5637488 48.4901853,48.5693559 47.4272082,48.2257361 Z M52.2085328,11.9918003 C52.424682,12.7309687 52.5603685,13.2502154 52.5603685,13.2502154 C53.1291675,14.9234455 53.6100937,17.7114985 53.6346076,19.4818596 L53.7925794,30.8904052 C67.3063907,30.9248125 77.3897857,31.7554672 90.0402959,34.1569881 C97.1317728,35.5032049 95.9154237,40.7977673 90.8056392,43.7457739 C79.6920387,50.1575839 62.0533424,51.2560093 52.9696837,51.290677 L50.8613606,79.923993 C51.6797726,79.8090449 53.8292387,79.7765655 58.4844249,81.130608 C66.8550164,83.5653414 67.0949423,88.7459088 63.0546893,90.2917178 C59.7426483,91.5589114 53.0091123,91.5589114 53.0091123,91.5589114 L50.954941,88.9028091 L50.954941,87.1373387 L50.6040663,87.1373387 L50.6040663,92.6788586 C50.6040663,92.8562201 50.4626767,93 50.2821689,93 L49.6503254,93 C49.4725464,93 49.3284281,92.8594768 49.3284281,92.6788586 L49.3284281,87.1373387 L48.9868139,87.1373387 L48.9868139,88.9028091 L46.9326426,91.5589114 C46.9326426,91.5589114 40.1991066,91.5589114 36.8870656,90.2917178 C32.8468126,88.7459088 33.0867385,83.5653414 41.45733,81.130608 C46.1009894,79.7799183 48.2513222,79.8088926 49.0742903,79.9231407 L46.9730389,51.2904448 C37.8726847,51.2513776 20.2846482,50.1441338 9.19436082,43.7457739 C4.08457632,40.7977673 2.8682272,35.5032049 9.95970409,34.1569881 C22.5891421,31.7594674 32.66001,30.9275841 46.1399166,30.8905838 L46.299675,19.4818596 C46.324438,17.7134477 46.8054937,14.9228632 47.3737011,13.2502154 C47.3737011,13.2502154 47.5126048,12.7186336 47.7332038,11.9655242 L45.0349502,11.7893899 C44.6850972,11.7665525 44.1206451,11.7074519 43.7733925,11.6572668 L40.0703248,11.1220976 C39.7234386,11.0719655 39.7230215,11.0158523 40.0752772,10.9964411 L44.4713918,10.7541911 C44.8210131,10.734925 45.3896144,10.7193068 45.7398968,10.7193068 L48.1147459,10.7193068 C48.6701626,8.98759615 49.4244966,7.00314573 49.9655414,7.00000372 C50.5087539,6.99684913 51.2679241,8.99804986 51.8247894,10.7365396 L54.6615812,10.9217173 C55.0114341,10.9445547 55.5758862,11.0036552 55.9231389,11.0538403 L59.6262066,11.5890095 C59.9730927,11.6391417 59.9735098,11.6952549 59.6212542,11.7146661 L55.2251395,11.9569161 C54.8755183,11.9761821 54.306917,11.9918003 53.9566346,11.9918003 L52.2085328,11.9918003 L52.2085328,11.9918003 Z"></path></g></g></svg>